%
M48
M72
T01C0.01500
T02C0.04000
T03C0.05500
T04C0.08661
%
T01
X63874Y40370
X67811Y40370
X71748Y40370
X75685Y40370
X79622Y40370
X83559Y40370
X87496Y40370
X91433Y40370
T02
X8126Y11000
X43126Y11000
X43126Y71000
X8126Y71000
T03
X95626Y68500
X110626Y68500
X113126Y43500
X110626Y11000
X95626Y11000
T04
X103087Y23795
X118638Y23795
X87535Y23795
X71984Y23795
X56433Y23795
X40882Y23795
X25331Y23795
X9780Y23795
X9780Y56866
X25331Y56866
X40882Y56866
X56433Y56866
X71984Y56866
X87535Y56866
X103087Y56866
X118638Y56866
M30
