G75*
%MOIN*%
%OFA0B0*%
%FSLAX25Y25*%
%IPPOS*%
%LPD*%
%AMOC8*
5,1,8,0,0,1.08239X$1,22.5*
%
%ADD10C,0.01000*%
%ADD11R,0.01181X0.08268*%
%ADD12C,0.00600*%
%ADD13C,0.00800*%
D10*
X0124218Y0075500D02*
X0128352Y0072744D01*
X0128352Y0078453D01*
X0124218Y0075500D01*
D11*
X0124021Y0075500D03*
D12*
X0104868Y0013000D02*
X0107368Y0010500D01*
X0112368Y0010500D01*
X0114868Y0013000D01*
X0114868Y0018000D01*
X0112368Y0020500D01*
X0107368Y0020500D01*
X0104868Y0018000D01*
X0104868Y0013000D01*
X0139868Y0013000D02*
X0142368Y0010500D01*
X0147368Y0010500D01*
X0149868Y0013000D01*
X0149868Y0018000D01*
X0147368Y0020500D01*
X0142368Y0020500D01*
X0139868Y0018000D01*
X0139868Y0013000D01*
X0160845Y0034300D02*
X0161245Y0034300D01*
X0194245Y0034300D01*
X0214868Y0043000D02*
X0217368Y0040500D01*
X0222368Y0040500D01*
X0224868Y0043000D01*
X0224868Y0048000D01*
X0222368Y0050500D01*
X0217368Y0050500D01*
X0214868Y0048000D01*
X0214868Y0043000D01*
X0161645Y0035000D02*
X0161245Y0034300D01*
X0214868Y0018000D02*
X0217368Y0020500D01*
X0222368Y0020500D01*
X0224868Y0018000D01*
X0224868Y0013000D01*
X0222368Y0010500D01*
X0217368Y0010500D01*
X0214868Y0013000D01*
X0214868Y0018000D01*
X0183221Y0069300D02*
X0150221Y0069300D01*
X0149821Y0069300D01*
X0150221Y0069300D02*
X0150621Y0070000D01*
X0149868Y0073000D02*
X0147368Y0070500D01*
X0142368Y0070500D01*
X0139868Y0073000D01*
X0139868Y0078000D01*
X0142368Y0080500D01*
X0147368Y0080500D01*
X0149868Y0078000D01*
X0149868Y0073000D01*
X0114868Y0073000D02*
X0112368Y0070500D01*
X0107368Y0070500D01*
X0104868Y0073000D01*
X0104868Y0078000D01*
X0107368Y0080500D01*
X0112368Y0080500D01*
X0114868Y0078000D01*
X0114868Y0073000D01*
D13*
X0114328Y0052899D02*
X0112927Y0052198D01*
X0111525Y0050797D01*
X0113627Y0050797D01*
X0114328Y0050096D01*
X0114328Y0049396D01*
X0113627Y0048695D01*
X0112226Y0048695D01*
X0111525Y0049396D01*
X0111525Y0050797D01*
X0109724Y0048695D02*
X0106921Y0048695D01*
X0108323Y0048695D02*
X0108323Y0052899D01*
X0106921Y0051498D01*
X0219421Y0038998D02*
X0220823Y0040399D01*
X0220823Y0036195D01*
X0222224Y0036195D02*
X0219421Y0036195D01*
M02*
