G75*
%MOIN*%
%OFA0B0*%
%FSLAX25Y25*%
%IPPOS*%
%LPD*%
%AMOC8*
5,1,8,0,0,1.08239X$1,22.5*
%
%ADD10C,0.00000*%
%ADD11R,0.07087X0.06693*%
%ADD12OC8,0.06000*%
%ADD13C,0.12661*%
%ADD14R,0.07087X0.12598*%
%ADD15C,0.02700*%
%ADD16R,0.07874X0.15748*%
%ADD17OC8,0.10000*%
D10*
X0001000Y0001000D02*
X0001000Y0077772D01*
X0126984Y0077772D01*
X0126984Y0001000D01*
X0001000Y0001000D01*
D11*
X0017555Y0071000D03*
X0033697Y0071000D03*
D12*
X0043126Y0071000D03*
X0008126Y0071000D03*
X0008126Y0011000D03*
X0043126Y0011000D03*
D13*
X0040882Y0023795D03*
X0025331Y0023795D03*
X0009780Y0023795D03*
X0056433Y0023795D03*
X0071984Y0023795D03*
X0087535Y0023795D03*
X0103087Y0023795D03*
X0118638Y0023795D03*
X0118638Y0056866D03*
X0103087Y0056866D03*
X0087535Y0056866D03*
X0071984Y0056866D03*
X0056433Y0056866D03*
X0040882Y0056866D03*
X0025331Y0056866D03*
X0009780Y0056866D03*
D14*
X0007102Y0041000D03*
X0029150Y0041000D03*
D15*
X0063874Y0041720D02*
X0063874Y0039020D01*
X0067811Y0039020D02*
X0067811Y0041720D01*
X0071748Y0041720D02*
X0071748Y0039020D01*
X0075685Y0039020D02*
X0075685Y0041720D01*
X0079622Y0041720D02*
X0079622Y0039020D01*
X0083559Y0039020D02*
X0083559Y0041720D01*
X0087496Y0041720D02*
X0087496Y0039020D01*
X0091433Y0039020D02*
X0091433Y0041720D01*
D16*
X0101276Y0040370D03*
X0054031Y0040370D03*
D17*
X0095626Y0068500D03*
X0110626Y0068500D03*
X0113126Y0043500D03*
X0110626Y0011000D03*
X0095626Y0011000D03*
M02*
