%
M48
M72
T01C0.01200
T02C0.04000
T03C0.08661
%
T01
X58874Y40370
X62811Y40370
X66748Y40370
X70685Y40370
X74622Y40370
X78559Y40370
X82496Y40370
X86433Y40370
T02
X8126Y11000
X43126Y11000
X108126Y11000
X108126Y41000
X43126Y71000
X8126Y71000
T03
X9780Y56866
X25331Y56866
X40882Y56866
X56433Y56866
X71984Y56866
X87535Y56866
X103087Y56866
X118638Y56866
X118638Y23795
X103087Y23795
X87535Y23795
X71984Y23795
X56433Y23795
X40882Y23795
X25331Y23795
X9780Y23795
M30
