G75*
%MOIN*%
%OFA0B0*%
%FSLAX25Y25*%
%IPPOS*%
%LPD*%
%AMOC8*
5,1,8,0,0,1.08239X$1,22.5*
%
%ADD10C,0.00000*%
%ADD11OC8,0.06000*%
%ADD12C,0.12661*%
%ADD13C,0.02400*%
D10*
X0001000Y0001000D02*
X0001000Y0077772D01*
X0126984Y0077772D01*
X0126984Y0001000D01*
X0001000Y0001000D01*
D11*
X0008126Y0011000D03*
X0043126Y0011000D03*
X0108126Y0011000D03*
X0108126Y0041000D03*
X0043126Y0071000D03*
X0008126Y0071000D03*
D12*
X0009780Y0056866D03*
X0025331Y0056866D03*
X0040882Y0056866D03*
X0056433Y0056866D03*
X0071984Y0056866D03*
X0087535Y0056866D03*
X0103087Y0056866D03*
X0118638Y0056866D03*
X0118638Y0023795D03*
X0103087Y0023795D03*
X0087535Y0023795D03*
X0071984Y0023795D03*
X0056433Y0023795D03*
X0040882Y0023795D03*
X0025331Y0023795D03*
X0009780Y0023795D03*
D13*
X0058874Y0039170D02*
X0058874Y0041570D01*
X0062811Y0041570D02*
X0062811Y0039170D01*
X0066748Y0039170D02*
X0066748Y0041570D01*
X0070685Y0041570D02*
X0070685Y0039170D01*
X0074622Y0039170D02*
X0074622Y0041570D01*
X0078559Y0041570D02*
X0078559Y0039170D01*
X0082496Y0039170D02*
X0082496Y0041570D01*
X0086433Y0041570D02*
X0086433Y0039170D01*
M02*
