%
M48
M72
T01C0.04000
T02C0.08661
%
T01
X109868Y15500
X144868Y15500
X219868Y15500
X219868Y45500
X144868Y75500
X109868Y75500
T02
X111521Y61366
X127073Y61366
X142624Y61366
X158175Y61366
X173726Y61366
X189277Y61366
X204829Y61366
X220380Y61366
X220380Y28295
X204829Y28295
X189277Y28295
X173726Y28295
X158175Y28295
X142624Y28295
X127073Y28295
X111521Y28295
M30
