<?xml version="1.0" encoding="utf-8"?>
<!-- Generator: Adobe Illustrator 16.0.0, SVG Export Plug-In . SVG Version: 6.00 Build 0)  -->
<!DOCTYPE svg PUBLIC "-//W3C//DTD SVG 1.1//EN" "http://www.w3.org/Graphics/SVG/1.1/DTD/svg11.dtd">
<svg version="1.1" id="Layer_1" xmlns="http://www.w3.org/2000/svg" xmlns:xlink="http://www.w3.org/1999/xlink" x="0px" y="0px"
	 width="841.89px" height="595.28px" viewBox="0 0 841.89 595.28" enable-background="new 0 0 841.89 595.28" xml:space="preserve">
<path fill="#D0D2D3" d="M580.923,406.786c0,7.289-4.575,13.199-10.222,13.199H289.01c-5.646,0-10.223-5.91-10.223-13.199V131.05
	c0-7.291,4.577-13.2,10.223-13.2h281.691c5.646,0,10.222,5.91,10.222,13.2V406.786z"/>
<path fill="none" stroke="#231F20" stroke-width="1.1266" stroke-miterlimit="10" d="M430.559,172.106
	c64.436,0,116.666,67.443,116.666,150.646H313.881C313.881,239.55,366.113,172.106,430.559,172.106z"/>
<path fill="#262261" d="M285.07,356.781h290.966c0-103.751-65.13-187.863-145.478-187.863
	C350.199,168.918,285.07,253.03,285.07,356.781z M547.225,322.752H313.881c0-83.202,52.231-150.646,116.677-150.646
	C494.994,172.106,547.225,239.55,547.225,322.752z"/>
<path fill="none" d="M430.559,172.106c64.436,0,116.666,67.443,116.666,150.646H313.881
	C313.881,239.55,366.113,172.106,430.559,172.106z"/>
<g>
	<path fill="#262261" d="M357.602,258.975c0-10.435,2.214-19.262,6.642-26.48c4.428-7.218,10.347-10.827,17.758-10.827
		c8.158,0,14.394,3.269,18.706,9.803c4.312,6.534,6.468,15.702,6.468,27.505c0,11.802-2.253,21.171-6.758,28.105
		c-4.506,6.935-10.902,10.401-19.19,10.401c-7.617,0-13.458-3.434-17.525-10.302C359.636,280.313,357.602,270.91,357.602,258.975z
		 M368.059,258.975c0,8.568,1.123,15.203,3.37,19.903c2.246,4.701,5.512,7.052,9.798,7.052c5.035,0,8.875-2.301,11.522-6.901
		c2.646-4.601,3.97-11.285,3.97-20.054c0-17.17-4.906-25.755-14.717-25.755c-4.493,0-7.94,2.325-10.341,6.977
		C369.26,244.847,368.059,251.106,368.059,258.975z"/>
	<path fill="#262261" d="M433.434,296.231h-17.35v-73.214c7.642-0.467,13-0.7,16.073-0.7c5.887,0,10.488,1.625,13.807,4.876
		c3.317,3.251,4.977,7.894,4.977,13.928c0,5.801-2.375,10.386-7.126,13.753c7.049,3.167,10.573,9.701,10.573,19.604
		c0,6.668-1.949,11.961-5.848,15.878C444.64,294.273,439.604,296.231,433.434,296.231z M426.152,233.42v17.553
		c1.55,0.134,3.176,0.2,4.881,0.2c6.558,0,9.837-3.184,9.837-9.552c0-5.634-2.982-8.451-8.946-8.451
		C430.349,233.17,428.425,233.253,426.152,233.42z M426.152,261.125v24.204c2.04,0.234,3.692,0.351,4.958,0.351
		c4.493,0,7.752-0.983,9.779-2.951c2.026-1.967,3.04-5.233,3.04-9.802c0-4.167-0.943-7.201-2.827-9.102
		c-1.886-1.9-5.177-2.851-9.876-2.851C430.245,260.975,428.555,261.024,426.152,261.125z"/>
	<path fill="#262261" d="M475.882,296.231h-12.587v-73.214c8.029-0.366,13.077-0.55,15.143-0.55c8.263,0,14.814,3.125,19.656,9.377
		c4.84,6.251,7.262,14.545,7.262,24.879C505.355,283.063,495.53,296.231,475.882,296.231z M473.364,234.37v50.009
		c1.627,0.2,3.382,0.301,5.267,0.301c5.087,0,9.069-2.384,11.949-7.151c2.878-4.768,4.318-11.436,4.318-20.004
		c0-15.67-5.643-23.505-16.926-23.505C476.889,234.02,475.352,234.137,473.364,234.37z"/>
</g>
</svg>
